<?xml version="1.0" standalone="no"?>
<!DOCTYPE svg PUBLIC "-//W3C//DTD SVG 20010904//EN"
 "http://www.w3.org/TR/2001/REC-SVG-20010904/DTD/svg10.dtd">
<svg version="1.0" xmlns="http://www.w3.org/2000/svg"
 width="1200.000000pt" height="1200.000000pt" viewBox="0 0 1200.000000 1200.000000"
 preserveAspectRatio="xMidYMid meet">

<g transform="translate(0.000000,1200.000000) scale(0.100000,-0.100000)"
fill="#000000" stroke="none">
<path d="M5964 7491 c-32 -14 -64 -60 -64 -93 0 -21 11 -41 34 -64 47 -47 86
-46 133 1 31 31 35 40 30 72 -11 65 -78 107 -133 84z"/>
<path d="M5544 7424 c-89 -44 -59 -184 40 -184 105 0 137 146 41 186 -42 17
-43 17 -81 -2z"/>
<path d="M6373 7425 c-64 -27 -76 -110 -24 -157 43 -39 92 -38 132 1 48 49 35
126 -26 156 -39 18 -41 18 -82 0z"/>
<path d="M5143 7226 c-23 -20 -28 -32 -28 -71 0 -39 5 -51 28 -71 53 -45 131
-27 157 35 39 94 -79 174 -157 107z"/>
<path d="M6725 7226 c-32 -32 -40 -69 -25 -107 26 -62 104 -80 157 -35 23 20
28 32 28 71 0 39 -5 51 -28 71 -39 33 -99 33 -132 0z"/>
<path d="M4865 6961 c-61 -25 -79 -112 -33 -157 55 -55 150 -31 164 41 15 83
-56 146 -131 116z"/>
<path d="M7051 6957 c-45 -26 -65 -93 -41 -138 16 -29 68 -52 105 -45 107 20
103 176 -6 191 -19 3 -44 -1 -58 -8z"/>
<path d="M5440 6588 c1 -120 71 -269 180 -378 65 -65 227 -190 263 -203 14 -5
22 1 -88 -72 -100 -66 -227 -187 -269 -254 -41 -65 -74 -161 -82 -235 l-7 -66
57 0 56 0 0 34 c0 50 33 149 68 203 17 27 59 76 94 110 63 62 261 203 285 203
7 0 48 -22 90 -50 l78 -50 -106 0 -106 0 -74 -52 -74 -53 250 -3 250 -3 40
-49 c22 -27 41 -53 43 -59 3 -8 -100 -11 -346 -11 l-350 0 -20 -32 c-11 -18
-23 -43 -27 -55 l-6 -23 399 0 400 0 6 -22 c3 -13 6 -38 6 -55 l0 -33 55 0 55
0 0 33 c0 53 -28 153 -60 216 -69 137 -183 239 -460 411 -203 125 -280 182
-351 257 -88 93 -139 198 -139 291 l0 32 -55 0 -55 0 0 -32z"/>
<path d="M6447 6570 c-3 -28 -9 -55 -12 -60 -4 -6 -155 -10 -400 -10 l-395 0
10 -26 c6 -15 20 -40 31 -55 l20 -29 340 0 c186 0 339 -3 339 -7 0 -5 -18 -29
-41 -55 l-40 -48 -247 -2 -247 -3 70 -50 69 -50 106 -5 105 -5 -47 -34 -48
-35 46 -30 c46 -29 46 -30 79 -12 59 32 200 154 247 213 77 99 127 224 128
321 l0 32 -54 0 -53 0 -6 -50z"/>
<path d="M4663 6598 c-70 -18 -89 -111 -34 -160 43 -39 92 -38 132 1 38 38 39
87 4 129 -28 34 -56 42 -102 30z"/>
<path d="M7283 6602 c-34 -5 -73 -58 -73 -99 0 -48 45 -93 94 -93 80 0 128 99
79 159 -20 23 -66 39 -100 33z"/>
<path d="M1578 6331 c-126 -41 -162 -190 -66 -277 12 -12 64 -42 114 -68 87
-43 134 -82 134 -112 0 -26 -23 -62 -47 -73 -56 -25 -129 -1 -171 56 -18 24
-21 25 -58 13 -21 -7 -42 -15 -47 -19 -15 -14 52 -99 100 -128 66 -39 167 -40
231 -3 55 31 92 91 92 149 0 88 -44 137 -185 208 -85 42 -115 69 -115 100 0
66 94 86 154 32 33 -29 37 -30 75 -18 23 7 41 18 41 24 0 25 -46 79 -84 98
-43 23 -126 31 -168 18z"/>
<path d="M3237 6327 c-117 -38 -188 -182 -174 -352 8 -92 30 -153 74 -204 44
-52 76 -69 147 -77 47 -6 63 -3 108 19 30 15 63 41 75 59 38 58 38 63 -8 81
l-42 17 -38 -42 c-36 -38 -41 -40 -79 -35 -77 10 -121 78 -128 198 -6 102 15
176 63 218 51 44 95 43 143 -5 l36 -36 44 21 44 21 -19 33 c-45 76 -155 114
-246 84z"/>
<path d="M8088 6331 c-126 -41 -162 -190 -66 -277 12 -12 64 -42 114 -68 87
-43 134 -82 134 -112 0 -26 -23 -62 -47 -73 -56 -25 -129 -1 -171 56 -18 24
-21 25 -58 13 -21 -7 -42 -15 -47 -19 -15 -14 52 -99 100 -128 66 -39 167 -40
231 -3 55 31 92 91 92 149 0 88 -44 137 -185 208 -85 42 -115 69 -115 100 0
66 94 86 154 32 33 -29 37 -30 75 -18 23 7 41 18 41 24 0 25 -46 79 -84 98
-43 23 -126 31 -168 18z"/>
<path d="M10838 6331 c-126 -41 -162 -190 -66 -277 12 -12 64 -42 114 -68 87
-43 134 -82 134 -112 0 -26 -23 -62 -47 -73 -56 -25 -129 -1 -171 56 -18 24
-21 25 -58 13 -21 -7 -42 -15 -47 -19 -15 -14 52 -99 100 -128 66 -39 167 -40
231 -3 55 31 92 91 92 149 0 88 -44 137 -185 208 -85 42 -115 69 -115 100 0
66 94 86 154 32 33 -29 37 -30 75 -18 23 7 41 18 41 24 0 25 -46 79 -84 98
-43 23 -126 31 -168 18z"/>
<path d="M1960 6280 l0 -50 90 0 c79 0 90 -2 91 -17 0 -10 1 -129 1 -265 l1
-248 54 0 53 0 0 265 0 265 90 0 90 0 0 50 0 50 -235 0 -235 0 0 -50z"/>
<path d="M2694 6317 c-2 -7 -49 -149 -103 -315 l-98 -302 56 0 56 0 20 68 20
67 102 3 101 3 21 -71 22 -70 55 0 c41 0 55 3 52 13 -3 6 -49 148 -103 315
l-99 302 -48 0 c-31 0 -50 -5 -54 -13z m90 -258 c18 -63 32 -117 29 -121 -2
-5 -33 -8 -69 -8 -35 0 -64 3 -64 8 -1 12 64 241 67 238 2 -2 18 -54 37 -117z"/>
<path d="M3640 6015 l0 -315 50 0 50 0 0 118 c0 114 1 120 28 155 15 20 31 35
35 34 5 -2 46 -71 90 -155 l82 -152 57 0 c32 0 58 3 58 6 0 3 -47 92 -105 198
-58 106 -105 196 -105 200 0 4 35 51 78 104 106 131 103 122 34 122 l-59 0
-89 -115 c-49 -63 -92 -115 -96 -115 -5 0 -8 52 -8 115 l0 115 -50 0 -50 0 0
-315z"/>
<path d="M8500 6015 l0 -315 50 0 49 0 3 138 3 137 103 3 102 3 0 -141 0 -140
50 0 50 0 0 315 0 315 -50 0 -50 0 0 -130 0 -131 -102 3 -103 3 -3 128 -3 127
-49 0 -50 0 0 -315z"/>
<path d="M9070 6285 l0 -45 65 0 c36 0 65 -4 66 -10 0 -5 1 -102 1 -215 0
-113 -1 -209 -1 -215 -1 -6 -30 -10 -66 -10 l-65 0 0 -45 0 -45 185 0 185 0 0
45 0 45 -65 0 -65 0 0 225 0 225 65 0 65 0 0 45 0 45 -185 0 -185 0 0 -45z"/>
<path d="M9600 6015 l0 -315 50 0 50 0 2 210 3 209 108 -209 109 -210 44 0 44
0 0 315 0 315 -45 0 -45 0 -2 -212 -3 -213 -108 213 -107 212 -50 0 -50 0 0
-315z"/>
<path d="M10150 6015 l0 -315 210 0 210 0 0 50 0 50 -160 0 -161 0 3 88 3 87
98 3 97 3 0 44 c0 51 11 46 -120 49 l-75 1 -3 78 -3 77 151 0 150 0 0 50 0 50
-200 0 -200 0 0 -315z"/>
<path d="M4570 6189 c-81 -32 -92 -137 -19 -174 54 -28 117 -8 139 44 31 77
-44 159 -120 130z"/>
<path d="M7374 6193 c-59 -11 -89 -95 -55 -150 38 -61 137 -53 169 13 34 72
-33 152 -114 137z"/>
<path d="M4595 5771 c-37 -16 -60 -51 -60 -93 0 -33 6 -45 33 -69 18 -16 43
-29 57 -29 58 0 105 47 105 104 0 56 -83 109 -135 87z"/>
<path d="M7334 5771 c-30 -13 -64 -59 -64 -88 0 -56 48 -103 105 -103 14 0 39
13 57 29 27 24 33 36 33 70 0 67 -71 117 -131 92z"/>
<path d="M4743 5375 c-62 -27 -74 -106 -23 -157 28 -27 36 -30 73 -25 103 14
121 153 25 186 -38 13 -36 13 -75 -4z"/>
<path d="M7173 5375 c-38 -16 -53 -42 -53 -89 0 -49 34 -86 87 -93 37 -5 45
-2 73 25 51 52 39 131 -25 158 -41 17 -42 17 -82 -1z"/>
<path d="M5004 5051 c-56 -24 -73 -113 -30 -156 32 -32 69 -40 107 -25 90 38
75 173 -21 185 -19 3 -45 1 -56 -4z"/>
<path d="M6914 5051 c-56 -24 -73 -113 -30 -156 32 -32 69 -40 107 -25 90 38
75 173 -21 185 -19 3 -45 1 -56 -4z"/>
<path d="M5325 4796 c-32 -32 -40 -69 -25 -107 26 -62 104 -80 157 -35 23 20
28 32 28 71 0 39 -5 51 -28 71 -39 33 -99 33 -132 0z"/>
<path d="M6543 4796 c-23 -20 -28 -32 -28 -71 0 -39 5 -51 28 -71 53 -45 131
-27 157 35 39 94 -79 174 -157 107z"/>
<path d="M5728 4671 c-27 -24 -33 -36 -33 -70 0 -91 105 -131 166 -63 44 49
34 119 -22 148 -42 21 -75 17 -111 -15z"/>
<path d="M6161 4686 c-60 -33 -67 -102 -16 -153 31 -31 40 -35 72 -30 87 15
119 111 55 168 -35 32 -72 37 -111 15z"/>
</g>
</svg>
