<svg class="svg-icon" style="width: 1em; height: 1em;vertical-align: middle;fill: currentColor;overflow: hidden;" viewBox="0 0 1024 1024" version="1.1" xmlns="http://www.w3.org/2000/svg"><path d="M985.212121 861.090909h-946.424242C17.066667 861.090909 0 844.024242 0 822.30303V201.69697c0-21.721212 17.066667-38.787879 38.787879-38.787879h946.424242c21.721212 0 38.787879 17.066667 38.787879 38.787879v620.60606c0 21.721212-17.066667 38.787879-38.787879 38.787879z m-946.424242-682.666667c-12.412121 0-23.272727 10.860606-23.272727 23.272728v620.60606c0 12.412121 10.860606 23.272727 23.272727 23.272728h946.424242c12.412121 0 23.272727-10.860606 23.272727-23.272728V201.69697c0-12.412121-10.860606-23.272727-23.272727-23.272728h-946.424242z" fill="#979797" /><path d="M491.985455 625.260606c-18.618182 0-35.684848-13.963636-52.751516-40.339394-7.757576-12.412121-13.963636-26.375758-17.066666-37.236364-4.654545-12.412121-6.206061-24.824242-6.206061-37.236363 0-23.272727 6.206061-43.442424 18.618182-58.957576 6.206061-7.757576 13.963636-13.963636 21.721212-17.066667 15.515152-7.757576 31.030303-7.757576 55.854546-1.551515 3.10303 1.551515 6.206061 1.551515 9.30909 3.103031v-3.103031c0-15.515152 4.654545-27.927273 12.412122-40.339394 7.757576-10.860606 21.721212-18.618182 41.890909-23.272727l9.309091-1.551515 3.10303 17.066667c0 6.206061-1.551515 13.963636-4.654546 21.721212-3.10303 7.757576-7.757576 15.515152-15.515151 21.721212l-1.551515 1.551515c4.654545 0 7.757576-1.551515 10.860606-1.551515 13.963636 0 26.375758 3.10303 37.236364 10.860606 6.206061 3.10303 12.412121 9.309091 17.066666 15.515151l6.206061 7.757576-7.757576 6.206061c-7.757576 6.206061-12.412121 10.860606-15.515151 15.515151-4.654545 7.757576-7.757576 15.515152-7.757576 23.272728 0 9.309091 3.10303 18.618182 7.757576 26.375757 6.206061 7.757576 12.412121 12.412121 18.618181 13.963636h1.551515l7.757576 1.551516-3.10303 9.309091c-4.654545 12.412121-10.860606 24.824242-20.169697 37.236363-13.963636 21.721212-29.478788 31.030303-46.545455 31.030303-6.206061 0-13.963636-1.551515-23.272727-4.654545-13.963636-4.654545-23.272727-6.206061-37.236363 0-6.206061 0-13.963636 3.10303-20.169697 3.10303z m-7.757576-184.630303c-7.757576 0-13.963636 1.551515-20.169697 4.654545-6.206061 3.10303-12.412121 7.757576-17.066667 13.963637-10.860606 12.412121-15.515152 29.478788-15.515151 48.09697 0 10.860606 1.551515 21.721212 4.654545 32.581818 3.10303 10.860606 9.309091 23.272727 15.515152 34.133333 13.963636 23.272727 26.375758 34.133333 40.339394 34.133333 3.10303 0 7.757576 0 17.066666-4.654545 17.066667-6.206061 29.478788-6.206061 48.09697 0 9.309091 3.10303 15.515152 4.654545 18.618182 4.654545 13.963636 0 24.824242-13.963636 34.133333-24.824242 6.206061-9.309091 12.412121-18.618182 15.515152-27.927273-7.757576-3.10303-13.963636-9.309091-20.169697-17.066666-7.757576-10.860606-10.860606-21.721212-10.860606-35.684849 0-12.412121 3.10303-23.272727 10.860606-32.581818 3.10303-4.654545 7.757576-9.309091 12.412121-13.963636-3.10303-3.10303-6.206061-6.206061-9.309091-7.757576-7.757576-6.206061-18.618182-7.757576-27.927273-7.757576-6.206061 0-13.963636 1.551515-23.272727 4.654545-10.860606 3.10303-18.618182 4.654545-23.272727 4.654546-1.551515 0-6.206061 0-21.721212-4.654546-12.412121-3.10303-20.169697-4.654545-27.927273-4.654545z m89.987879-58.957576c-12.412121 3.10303-20.169697 9.309091-24.824243 15.515152-4.654545 6.206061-7.757576 15.515152-9.309091 23.272727 3.10303 0 4.654545-1.551515 6.206061-1.551515 4.654545-1.551515 9.309091-4.654545 12.412121-7.757576 4.654545-4.654545 9.309091-9.309091 12.412121-15.515151 1.551515-4.654545 3.10303-9.309091 3.103031-13.963637z" fill="#979797" /></svg>